<svg id="logo" xmlns="http://www.w3.org/2000/svg" width="82.191" height="56" viewBox="0 0 82.191 56">
  <path id="Path_409" data-name="Path 409" d="M10.823,613c0-2.478-1.893-4.184-4.745-4.184H0v14H2.922v-5.236H5.166l2.852,5.26h3.25L7.9,616.978A4.238,4.238,0,0,0,10.823,613Zm-5.352,2.268H2.922v-4.114H5.471c1.519,0,2.383.725,2.383,1.94A2.09,2.09,0,0,1,5.471,615.272Z" transform="translate(0 -566.846)"/>
  <rect id="Rectangle_407" data-name="Rectangle 407" width="2.922" height="14.026" transform="translate(18.373 41.975)"/>
  <path id="Path_410" data-name="Path 410" d="M411.152,618.708l-3.18-9.888H404.91l4.887,14.026h2.6L417.3,608.82h-2.945Z" transform="translate(-377.08 -566.846)"/>
  <rect id="Rectangle_408" data-name="Rectangle 408" width="2.922" height="14.026" transform="translate(46.804 41.975)"/>
  <path id="Path_411" data-name="Path 411" d="M843.113,608.82H840.19v14.026h8.159v-2.455h-5.236Z" transform="translate(-782.52 -566.846)"/>
  <path id="Path_412" data-name="Path 412" d="M1070.487,611.251V608.82h-9.327v14.026h9.327v-2.408h-6.428v-3.553h6.218v-2.338h-6.218v-3.3Z" transform="translate(-988.296 -566.846)"/>
  <rect id="Rectangle_409" data-name="Rectangle 409" width="28.051" height="2.922" transform="translate(14.446 5.843)" fill="#00b373"/>
  <rect id="Rectangle_410" data-name="Rectangle 410" width="14.025" height="2.922" transform="translate(0 29.817)" fill="#00b373"/>
  <rect id="Rectangle_411" data-name="Rectangle 411" width="14.025" height="2.922" transform="translate(0 23.854)" fill="#00b373"/>
  <rect id="Rectangle_412" data-name="Rectangle 412" width="42.077" height="2.922" transform="translate(0 17.891)" fill="#00b373"/>
  <rect id="Rectangle_413" data-name="Rectangle 413" width="28.051" height="2.922" transform="translate(14.446 11.927)" fill="#00b373"/>
  <rect id="Rectangle_414" data-name="Rectangle 414" width="28.051" height="2.922" transform="translate(14.446)" fill="#00b373"/>
</svg>
