<svg width="240" height="78" viewBox="0 0 240 78" fill="none" xmlns="http://www.w3.org/2000/svg">
<path d="M6.23645 75.1944C7.22864 75.1944 7.91813 74.7617 7.91813 74.0118C7.91813 73.2619 7.13495 73.0191 5.84005 72.7163C3.85567 72.25 1.45807 71.8029 1.45807 69.2743C1.45807 67.1639 3.0893 65.8516 6.02264 65.8516C8.77099 65.8516 10.6256 67.0534 10.8274 69.6973H7.81963C7.70672 68.5436 6.9884 68.0485 6.06108 68.0485C5.0857 68.0485 4.50912 68.4811 4.50912 69.1685C4.50912 69.8079 5.06888 70.0651 6.81303 70.5122C8.47549 70.928 10.986 71.2164 10.986 73.8388C10.986 76.002 9.27549 77.4706 6.23645 77.4706C3.35357 77.4706 1.2803 76.0477 1.19141 73.2475H4.26888C4.35057 74.5454 5.19861 75.1944 6.23645 75.1944Z" fill="black"/>
<path d="M21.5709 68.5382H18.2292V77.2561H15.1445V68.5382H11.8027V66.0625H21.5709V68.5382Z" fill="black"/>
<path d="M29.5687 75.213H25.2444L24.5573 77.2585H21.3333L25.7152 66.0625H29.1194L33.4846 77.2585H30.2558L29.5687 75.213ZM28.8336 73.0498L27.4089 68.8267L25.9867 73.0498H28.8336Z" fill="black"/>
<path d="M42.8251 68.5382H39.4833V77.2561H36.3962V68.5382H33.0569V66.0625H42.8251V68.5382Z" fill="black"/>
<path d="M50.6617 73.3238V77.2585H47.5746V73.3454L43.4497 66.0625H46.9836L49.1098 70.3481L51.2359 66.0625H54.7698L50.6617 73.3238Z" fill="black"/>
<path d="M66.4119 74.2204C66.4119 76.0447 64.9584 77.2585 62.7194 77.2585H56.3362V66.0625H62.6377C64.7638 66.0625 66.138 67.2307 66.138 68.8771C66.138 70.3818 65.1938 71.1822 63.7236 71.5475C65.374 71.836 66.4119 72.6244 66.4119 74.2204ZM59.4257 70.5885H61.6959C62.8155 70.5885 63.2959 70.0453 63.2959 69.3867C63.2959 68.6488 62.7674 68.1536 61.8713 68.1536H59.4257V70.5885ZM63.5098 73.8214C63.5098 73.1483 63.0293 72.4777 61.9098 72.4777H59.4257V75.1794H61.8617C62.7842 75.1794 63.5194 74.6842 63.5194 73.8262L63.5098 73.8214Z" fill="black"/>
<path d="M75.4329 75.213H71.1086L70.4215 77.2585H67.1975L71.5795 66.0625H74.9837L79.3489 77.2585H76.12L75.4329 75.213ZM74.6978 73.0498L73.2732 68.8267L71.851 73.0498H74.6978Z" fill="black"/>
<path d="M87.3271 66.0625V77.2585H84.228V66.0625H87.3271Z" fill="black"/>
<path d="M96.6196 77.2585L94.8611 73.1171H92.8527V77.2585H89.7776V66.0625H95.7836C98.0683 66.0625 99.7163 67.5167 99.7163 69.5501C99.7258 70.2375 99.528 70.9118 99.1487 71.4851C98.7695 72.0583 98.2263 72.5039 97.5902 72.7638L100.019 77.2585H96.6196ZM92.8527 70.925H95.2551C96.1031 70.925 96.7109 70.3481 96.7109 69.5501C96.7109 68.8146 96.1031 68.2858 95.2551 68.2858H92.8527V70.925Z" fill="black"/>
<path d="M112.341 75.213H108.017L107.329 77.2585H104.105L108.487 66.0625H111.892L116.257 77.2585H113.033L112.341 75.213ZM111.606 73.0498L110.181 68.8267L108.759 73.0498H111.606Z" fill="black"/>
<path d="M124.67 77.2585L122.912 73.1171H120.913V77.2585H117.838V66.0625H123.844C126.131 66.0625 127.779 67.5167 127.779 69.5501C127.788 70.2377 127.589 70.9121 127.21 71.4853C126.83 72.0585 126.287 72.504 125.65 72.7638L128.081 77.2585H124.67ZM120.913 70.925H123.296C124.142 70.925 124.737 70.3481 124.737 69.5501C124.737 68.8146 124.13 68.2858 123.296 68.2858H120.913V70.925Z" fill="black"/>
<path d="M134.895 77.4658C131.363 77.4658 129.093 75.1463 129.093 71.6587C129.093 68.171 131.363 65.8516 134.895 65.8516C137.965 65.8516 140.043 67.5004 140.365 70.4184H137.112C136.889 69.0916 136.024 68.3874 134.873 68.3874C133.259 68.3874 132.23 69.6997 132.23 71.6659C132.23 73.632 133.271 74.9444 134.873 74.9444C136.089 74.9444 136.872 74.1777 137.078 72.7379H140.341C140.053 75.7472 138.085 77.4658 134.895 77.4658Z" fill="black"/>
<path d="M152.526 66.0625V77.2585H149.441V72.8431H145.357V77.2585H142.26V66.0625H145.348V70.365H149.432V66.0625H152.526Z" fill="black"/>
<path d="M158.078 66.0625V77.2585H154.991V66.0625H158.078Z" fill="black"/>
<path d="M169.367 68.5382H166.025V77.2561H162.938V68.5382H159.596V66.0625H169.367V68.5382Z" fill="black"/>
<path d="M173.972 68.3964V70.413H179.392V72.6364H173.972V74.9246H179.776V77.2585H170.887V66.0625H179.776V68.3964H173.972Z" fill="black"/>
<path d="M186.414 72.8936H184.879V77.2585H181.792V66.0625H184.879V70.3001H186.429L188.925 66.0625H192.137L188.773 71.5644L192.401 77.2585H188.987L186.414 72.8936Z" fill="black"/>
<path d="M202.804 68.5382H199.464V77.2561H196.377V68.5382H193.033V66.0625H202.801L202.804 68.5382Z" fill="black"/>
<path d="M214.445 66.0628V72.8434C214.445 75.4874 212.351 77.4103 209.345 77.4103C206.34 77.4103 204.245 75.4874 204.245 72.8434V66.0628H207.346V72.7809C207.346 74.014 208.146 74.8456 209.345 74.8456C210.544 74.8456 211.344 74.014 211.344 72.7809V66.0628H214.445ZM211.803 64.861H206.878V63.1641H211.803V64.861Z" fill="black"/>
<path d="M223.673 77.2585L221.915 73.1171H219.916V77.2585H216.831V66.0625H222.837C225.124 66.0625 226.772 67.5167 226.772 69.5501C226.782 70.2375 226.584 70.9118 226.205 71.4851C225.825 72.0583 225.282 72.5039 224.646 72.7638L227.075 77.2585H223.673ZM219.916 70.925H222.299C223.147 70.925 223.755 70.3481 223.755 69.5501C223.755 68.8146 223.147 68.2858 222.299 68.2858H219.916V70.925Z" fill="black"/>
<path d="M236.084 75.213H231.76L231.07 77.2585H227.849L232.231 66.0625H235.635L240 77.2585H236.771L236.084 75.213ZM235.347 73.0498L233.924 68.8267L232.502 73.0498H235.347Z" fill="black"/>
<path d="M222.189 0.015625H122.969V14.5118H222.189C222.56 14.5121 222.929 14.5857 223.272 14.7285C223.615 14.8712 223.927 15.0803 224.19 15.3437C224.452 15.6071 224.661 15.9197 224.802 16.2636C224.944 16.6075 225.017 16.976 225.016 17.3481V19.7757L138.864 20.1579C134.271 20.1579 129.866 21.9832 126.619 25.2323C123.372 28.4814 121.547 32.8882 121.547 37.4831C121.547 42.078 123.372 46.4848 126.619 49.7339C129.866 52.983 134.271 54.8083 138.864 54.8083H239.505V17.3481C239.505 7.7865 232.341 0.015625 222.189 0.015625ZM138.864 40.3122C138.128 40.2907 137.43 39.9834 136.918 39.4554C136.405 38.9274 136.118 38.2203 136.118 37.4843C136.118 36.7483 136.405 36.0412 136.918 35.5132C137.43 34.9852 138.128 34.6779 138.864 34.6565H225.016V40.3122H138.864Z" fill="black"/>
<path d="M99.2336 20.1519H17.3117C16.9407 20.1519 16.5733 20.0788 16.2305 19.9367C15.8878 19.7947 15.5763 19.5864 15.314 19.324C15.0516 19.0615 14.8435 18.7499 14.7015 18.4069C14.5596 18.064 14.4865 17.6964 14.4865 17.3252C14.4865 16.954 14.5596 16.5865 14.7015 16.2435C14.8435 15.9006 15.0516 15.589 15.314 15.3265C15.5763 15.064 15.8878 14.8558 16.2305 14.7137C16.5733 14.5717 16.9407 14.4986 17.3117 14.4986H115.138V0H17.3165C12.7239 0 8.31937 1.82533 5.07189 5.07444C1.82441 8.32355 0 12.7303 0 17.3252C0 21.9202 1.82441 26.3269 5.07189 29.576C8.31937 32.8251 12.7239 34.6504 17.3165 34.6504H99.2384C99.6165 34.6394 99.993 34.7044 100.346 34.8415C100.698 34.9787 101.02 35.1852 101.291 35.4489C101.562 35.7126 101.778 36.0281 101.925 36.3766C102.073 36.7252 102.148 37.0998 102.148 37.4783C102.148 37.8567 102.073 38.2314 101.925 38.5799C101.778 38.9285 101.562 39.244 101.291 39.5077C101.02 39.7714 100.698 39.9779 100.346 40.115C99.993 40.2522 99.6165 40.3172 99.2384 40.3061H1.41261V54.8023H99.2336C103.826 54.8023 108.231 52.977 111.478 49.7279C114.726 46.4788 116.55 42.072 116.55 37.4771C116.55 32.8822 114.726 28.4754 111.478 25.2263C108.231 21.9772 103.826 20.1519 99.2336 20.1519Z" fill="black"/>
</svg>